<svg width="443" height="131" viewBox="0 0 443 131" fill="none" xmlns="http://www.w3.org/2000/svg">
<path d="M354.8 42.7601L291.29 52.8601C293.97 69.5701 315.79 72.7901 327.48 62.9101C329.79 60.9601 331.14 58.6201 333.11 56.4101C338.88 53.0401 346.69 53.6701 353.19 52.0301C352.21 63.3201 343.98 74.9201 334.24 80.5401C296.08 102.54 253.43 60.0101 275.91 21.7901C297.93 -15.6399 353.81 0.770142 354.81 42.7701L354.8 42.7601ZM289.2 37.8001L331.15 31.4501C332.41 31.0201 331.38 29.3101 330.94 28.4701C321.8 10.8601 290.59 18.1901 289.2 37.8001Z" fill="#71B750"/>
<path d="M197.61 52.8499C200.1 68.3699 218.81 72.1299 231.03 64.7399C234.99 62.3499 238.76 56.22 241.52 55.16C244.28 54.1 253.86 52.8199 257.25 52.4899C258.14 52.3999 259.03 52.4099 259.92 52.4399C253.77 86.5499 209.48 98.1299 186.75 71.8699C160.5 41.5599 186.43 -5.97005 226.48 1.60995C246.07 5.31995 259.99 22.2299 261.5 41.8999C261.54 42.3699 261.7 42.7199 261.19 43.0399L197.6 52.8499H197.61ZM238.18 31.5199C235.37 19.9199 220.63 16.1199 210.36 19.7999C203.25 22.3499 195.95 29.8799 195.94 37.7899L238.18 31.5099V31.5199Z" fill="#71B750"/>
<path d="M364.68 86.3098C364.22 86.1698 363.99 85.3498 364.03 84.8698C364.81 69.5098 363.06 53.2498 364.03 37.9898C366.18 4.13984 408.96 -9.31016 429.04 17.7598C435.93 27.0498 435.53 33.3398 435.96 44.2998C436.42 55.9598 437.39 70.8498 436.41 82.3498C436.34 83.1098 435.88 86.3098 434.93 86.3098H417.78C417.78 86.3098 417.15 85.7298 417.15 85.6798V36.7498C417.15 34.6998 414.56 29.8398 413.18 28.1698C404.1 17.2198 385.11 22.5498 383.7 36.7498C382.21 51.7698 384.79 69.1698 383.72 84.4398C383.88 84.9698 382.99 86.2998 382.65 86.2998H364.67L364.68 86.3098Z" fill="#71B750"/>
<path d="M171.69 3.92024V21.2702C169.48 22.3202 166.54 22.4502 164.07 23.2702C156.34 25.8202 153.03 30.7402 152.43 38.8202C151.55 50.7402 152.43 64.2202 152.01 76.4602C151.9 79.5902 152.13 82.7602 152.03 85.8902H133.21C133.47 74.1302 132.87 62.3002 133.19 50.5402C133.5 39.4202 133.68 29.4402 140.22 19.9302C147.57 9.25024 158.64 3.79024 171.68 3.92024H171.69Z" fill="#71B750"/>
<path d="M21.1402 31.9399H2.74023V85.8899H21.1402V31.9399Z" fill="#71B750"/>
<path d="M11.82 23.64C18.348 23.64 23.64 18.348 23.64 11.82C23.64 5.29199 18.348 0 11.82 0C5.29199 0 0 5.29199 0 11.82C0 18.348 5.29199 23.64 11.82 23.64Z" fill="#71B750"/>
<path d="M54.1708 62.0498C53.7608 62.3198 51.6908 60.4598 50.9608 60.0398C49.6108 59.2798 47.9308 58.3898 46.5208 57.7898C44.6208 56.9898 38.9908 55.6798 37.8908 54.7198C37.0208 53.9498 36.6708 49.8798 36.6008 48.4798C34.6808 9.12978 83.5708 -8.91023 111.431 13.7898C112.171 14.3898 115.601 17.5798 115.891 18.1398C116.321 18.9798 114.041 20.8598 113.371 21.4898C110.361 24.3298 107.111 26.9698 104.101 29.8098C100.551 27.1798 97.1208 24.2798 92.9408 22.6498C76.1108 16.1298 56.2608 26.4698 56.2508 45.5198C56.2508 48.7598 57.9108 53.5598 57.5108 56.3598C57.2008 58.5498 54.8408 59.9798 54.1808 62.0298L54.1708 62.0498Z" fill="#71B750"/>
<path d="M47.2804 82.1298C44.8804 81.8298 40.7904 79.9098 38.7504 78.5398C30.8504 73.2098 27.1304 63.7798 29.9304 54.5298C30.3404 54.1698 34.8004 56.8397 35.7904 57.2397C40.7804 59.2297 46.5404 59.9998 50.8404 63.5198C52.4204 64.8098 53.4804 66.6098 55.0104 67.9198C56.4304 61.0898 61.5004 56.2498 67.2804 52.7898C74.5904 48.4298 82.9504 45.0398 90.3504 40.7298C91.2904 40.6198 90.8504 40.8698 90.9704 41.3598C93.5104 51.7498 93.9204 62.3498 86.7804 71.0398C79.2004 80.2798 67.6004 82.0197 56.6804 85.0597C57.0604 78.4797 61.2304 72.4498 65.2404 67.4898L72.5604 60.3898C64.0904 63.8298 58.7704 71.4997 55.2104 79.6197C51.3604 75.2897 49.4304 68.7098 43.7104 66.2498C44.8504 67.6198 46.3504 68.8297 47.4604 70.2297C50.2704 73.7797 52.2604 77.7098 53.3304 82.1398C51.4004 81.9698 49.1404 82.3798 47.2704 82.1398L47.2804 82.1298ZM73.2004 59.9598V60.3798C73.4704 60.2398 73.4704 60.0998 73.2004 59.9598Z" fill="#71B750"/>
<path d="M114.81 77.7396C114.35 79.8696 107.13 83.3996 105.06 84.2896C94.9803 88.6396 82.4702 90.3296 71.6602 88.2796C70.3202 88.0296 66.8002 87.2496 65.7702 86.6396C65.2402 86.3196 64.9002 86.2096 65.0502 85.4796C70.3102 84.1896 75.6802 82.8596 80.3802 80.1096C83.7902 78.1196 85.8102 75.6296 88.7402 73.4196C91.3502 71.4496 94.1203 70.6296 96.8203 68.9596V45.9596C96.8203 45.9596 97.4003 45.3296 97.4503 45.3296H114.18C114.18 45.3296 114.81 45.9096 114.81 45.9596V77.7396Z" fill="#71B750"/>
<path d="M61.4007 93.9496C61.8607 93.4896 63.3007 93.0596 63.9907 92.9796C73.1907 91.9596 84.2607 93.7496 93.6707 93.0096C97.4407 93.6096 98.0107 99.5096 92.8607 100.1C83.8007 101.12 72.8807 99.3596 63.6107 100.08C60.8207 99.6296 59.3607 95.9996 61.4007 93.9496Z" fill="#71B750"/>
<path d="M68.3108 101.49C73.2308 100.94 84.1808 100.84 89.0508 101.41C90.6208 101.6 92.7708 102.18 93.3008 103.85C94.7708 108.47 89.7608 108.67 86.5808 108.89C79.9108 109.33 73.2108 108.04 66.5308 108.45C64.0908 107.88 63.3108 106.18 63.8808 103.75C64.3608 101.73 66.6208 101.67 68.3008 101.49H68.3108Z" fill="#71B750"/>
<path d="M84.4104 117.8C83.6604 118.39 83.5904 119.71 81.8904 120.09C80.6704 120.36 75.7904 120.35 74.6404 119.99C73.1904 119.53 73.0104 117.95 71.9004 117.3C70.2304 116.31 67.5704 116.86 67.1604 114.09C66.8504 112.01 67.7904 110.56 69.8804 110.17C73.0004 109.59 84.4204 109.2 87.2204 109.93C89.4904 110.52 90.2404 112.12 89.5304 114.36C88.8704 116.42 85.8404 116.68 84.4104 117.81V117.8Z" fill="#71B750"/>
<path d="M73.2002 59.96C73.4702 60.1 73.4702 60.24 73.2002 60.38V59.96Z" fill="black"/>
<path d="M288.811 121.47L298.827 92.4333H305.687L315.704 121.47H309.936L307.87 115.234H296.645L294.54 121.47H288.811ZM298.165 110.557H306.35L301.517 96.097H302.998L298.165 110.557ZM318.117 121.47V91.9656H323.223V121.47H318.117ZM327.547 121.47V100.267H332.341V105.178L331.796 104.36C332.185 102.827 332.965 101.684 334.134 100.93C335.304 100.176 336.681 99.7997 338.266 99.7997C340.007 99.7997 341.54 100.254 342.865 101.164C344.19 102.073 345.047 103.269 345.437 104.75L343.995 104.867C344.645 103.178 345.619 101.917 346.918 101.086C348.218 100.228 349.712 99.7997 351.401 99.7997C352.908 99.7997 354.246 100.138 355.415 100.813C356.61 101.489 357.546 102.437 358.221 103.658C358.897 104.854 359.235 106.244 359.235 107.829V121.47H354.129V109.037C354.129 108.102 353.96 107.296 353.622 106.62C353.284 105.945 352.817 105.425 352.219 105.061C351.621 104.672 350.894 104.477 350.036 104.477C349.231 104.477 348.516 104.672 347.893 105.061C347.269 105.425 346.788 105.945 346.451 106.62C346.113 107.296 345.944 108.102 345.944 109.037V121.47H340.838V109.037C340.838 108.102 340.669 107.296 340.331 106.62C339.994 105.945 339.513 105.425 338.889 105.061C338.292 104.672 337.577 104.477 336.746 104.477C335.94 104.477 335.226 104.672 334.602 105.061C333.978 105.425 333.498 105.945 333.16 106.62C332.822 107.296 332.653 108.102 332.653 109.037V121.47H327.547ZM373.22 121.938C371.038 121.938 369.128 121.444 367.491 120.457C365.854 119.469 364.581 118.131 363.671 116.442C362.762 114.753 362.307 112.883 362.307 110.83C362.307 108.699 362.762 106.815 363.671 105.178C364.607 103.515 365.867 102.203 367.452 101.242C369.063 100.28 370.856 99.7997 372.83 99.7997C374.493 99.7997 375.949 100.073 377.196 100.618C378.469 101.164 379.547 101.917 380.431 102.879C381.314 103.84 381.99 104.945 382.457 106.192C382.925 107.413 383.159 108.738 383.159 110.167C383.159 110.531 383.133 110.908 383.081 111.298C383.055 111.687 382.99 112.025 382.886 112.311H366.516V108.413H380.002L377.585 110.245C377.819 109.05 377.754 107.985 377.391 107.049C377.053 106.114 376.481 105.373 375.676 104.828C374.896 104.282 373.948 104.009 372.83 104.009C371.765 104.009 370.817 104.282 369.985 104.828C369.154 105.347 368.517 106.127 368.075 107.166C367.66 108.18 367.504 109.414 367.608 110.869C367.504 112.168 367.673 113.324 368.114 114.338C368.582 115.325 369.258 116.092 370.141 116.637C371.051 117.183 372.09 117.456 373.259 117.456C374.428 117.456 375.416 117.209 376.221 116.715C377.053 116.221 377.702 115.559 378.17 114.727L382.302 116.754C381.886 117.768 381.236 118.664 380.353 119.443C379.469 120.223 378.417 120.834 377.196 121.275C376 121.717 374.675 121.938 373.22 121.938ZM386.64 121.47V100.267H391.746V121.47H386.64ZM386.64 97.8899V92.4333H391.746V97.8899H386.64ZM405.931 121.938C403.878 121.938 402.046 121.457 400.435 120.496C398.824 119.508 397.551 118.17 396.616 116.481C395.68 114.792 395.213 112.922 395.213 110.869C395.213 108.79 395.68 106.919 396.616 105.256C397.551 103.593 398.824 102.268 400.435 101.281C402.072 100.293 403.891 99.7997 405.892 99.7997C407.503 99.7997 408.932 100.125 410.179 100.774C411.452 101.398 412.453 102.281 413.18 103.424L412.401 104.477V91.9656H417.507V121.47H412.674V117.378L413.219 118.391C412.492 119.534 411.478 120.418 410.179 121.041C408.88 121.639 407.464 121.938 405.931 121.938ZM406.477 117.261C407.646 117.261 408.672 116.988 409.556 116.442C410.439 115.897 411.128 115.143 411.621 114.182C412.141 113.22 412.401 112.116 412.401 110.869C412.401 109.648 412.141 108.556 411.621 107.595C411.128 106.607 410.439 105.841 409.556 105.295C408.672 104.75 407.646 104.477 406.477 104.477C405.333 104.477 404.307 104.763 403.397 105.334C402.488 105.88 401.773 106.633 401.254 107.595C400.76 108.53 400.513 109.622 400.513 110.869C400.513 112.116 400.76 113.22 401.254 114.182C401.773 115.143 402.488 115.897 403.397 116.442C404.307 116.988 405.333 117.261 406.477 117.261ZM428.298 121.938C426.817 121.938 425.531 121.691 424.439 121.197C423.348 120.704 422.504 120.002 421.906 119.093C421.308 118.157 421.01 117.079 421.01 115.858C421.01 114.688 421.269 113.649 421.789 112.74C422.309 111.804 423.114 111.025 424.206 110.401C425.297 109.778 426.674 109.336 428.337 109.076L435.275 107.946V111.843L429.311 112.857C428.298 113.038 427.545 113.363 427.051 113.831C426.557 114.299 426.31 114.909 426.31 115.663C426.31 116.39 426.583 116.975 427.129 117.417C427.7 117.832 428.402 118.04 429.233 118.04C430.299 118.04 431.234 117.819 432.04 117.378C432.871 116.91 433.508 116.273 433.95 115.468C434.417 114.662 434.651 113.779 434.651 112.818V107.361C434.651 106.452 434.287 105.698 433.56 105.1C432.858 104.477 431.923 104.165 430.754 104.165C429.662 104.165 428.688 104.464 427.83 105.061C426.999 105.633 426.388 106.4 425.998 107.361L421.828 105.334C422.244 104.217 422.893 103.256 423.777 102.45C424.686 101.619 425.752 100.969 426.973 100.501C428.194 100.034 429.519 99.7997 430.948 99.7997C432.689 99.7997 434.222 100.125 435.548 100.774C436.873 101.398 437.899 102.281 438.627 103.424C439.38 104.542 439.757 105.854 439.757 107.361V121.47H434.924V117.845L436.015 117.768C435.47 118.677 434.82 119.443 434.066 120.067C433.313 120.665 432.455 121.132 431.494 121.47C430.533 121.782 429.467 121.938 428.298 121.938Z" fill="#71B750"/>
</svg>
